<svg xmlns="http://www.w3.org/2000/svg" viewBox="0 0 3036 964"><defs><style>.cls-1{fill:#68bbb8;}.cls-2{fill:#f5855b;}.cls-3{fill:#fff;}</style></defs><title>FIP-icons</title><g id="condom_2"><g id="wrapper-2"><path class="cls-1" d="M1737.08,223.19569l-10.53978,22.58515-7.52849-22.58515L1707.7193,245.028l-9.78689-21.83233-9.03414,21.07944-10.53965-21.07944-9.03413,21.07944-9.03414-21.07944-9.78689,20.32661-9.034-19.57378-9.034,21.0795-7.52836-19.57386-12.04543,18.06814-10.53978-21.07949L1591.7821,245.028l-8.28112-20.32668-9.78689,20.32668L1564.68,222.44281l-9.78689,21.83232-8.28125-20.32661-7.52836,21.0795L1527.038,225.45416l-10.53978,16.5625L1508.21712,221.69l-9.78689,21.83232-9.78689-18.821-9.7869,21.83232-9.03413-21.0795L1459.28253,245.028l-9.034-21.0795-9.78689,21.0795V549.92756l8.28111,20.32661,12.04543-19.57379,8.28138,18.821,9.03387-19.57378,9.03414,19.57378,12.04543-21.07949,6.7756,20.32667,9.034-21.0795,9.78689,21.83232,10.53978-21.07949,10.53965,21.07949,9.7869-21.83232,9.03413,22.58515,9.78689-20.32661,9.03414,19.57378,10.53965-19.57378,8.28125,20.32661,11.29254-20.32661,8.28125,18.821,8.28124-23.338,11.29254,23.338,9.7869-20.32667,9.78689,21.83232,8.28125-20.32661,9.03413,21.07943,11.29241-20.32661,8.28138,20.32661,9.78689-20.32661,9.7869,18.821,9.78689-21.83232L1737.08,572.5127l9.7869-24.09085V243.5223Zm-23.79583,275.80256a12.81369,12.81369,0,0,1-12.77609,12.7761h-219.3229a12.81368,12.81368,0,0,1-12.77609-12.7761V286.0634a12.81364,12.81364,0,0,1,12.77609-12.77609h219.3229a12.81364,12.81364,0,0,1,12.77609,12.77609Z"/><path class="cls-1" d="M1690.926,282.39721H1489.70255a12.81364,12.81364,0,0,0-12.77609,12.77609V490.48086a12.81369,12.81369,0,0,0,12.77609,12.77609H1690.926a12.81369,12.81369,0,0,0,12.77609-12.77609V295.1733A12.81364,12.81364,0,0,0,1690.926,282.39721Zm-60.1541,104.81024a29.27854,29.27854,0,1,1,29.27855-29.27854A29.27861,29.27861,0,0,1,1630.77189,387.20745Z"/></g><path id="tall-condom" class="cls-1" d="M1320.41934,810.94782H1311.902V281.8047c-1.06468-50.03969-73.46253-79.85057-73.46253-79.85057l-9.58207-24.48751V162.56118c-17.03478-24.48751-34.06957,0-34.06957,0v19.16414L1184.141,203.0188c-63.88045,13.84077-72.39785,85.17395-72.39785,85.17395V812.01249h-9.58207c-24.4875,13.84077,0,24.48751,0,24.48751h218.25823C1345.97152,823.72391,1320.41934,810.94782,1320.41934,810.94782ZM1128.778,273.28731s9.58207-8.5174,18.09946,0v22.35816s-8.51739,9.58207-18.09946,0Zm0,45.781s10.64674-18.09946,18.09946,0v183.124s-10.64674,15.97011-18.09946,0ZM1212.88724,830.112s-107.5321-2.66168-107.5321-1.06467c0,0-8.5174-5.32337,0-9.58207h107.5321S1222.46931,823.72391,1212.88724,830.112Zm24.48751,0h-9.58207s-7.45272-6.388,0-10.64674h9.58207S1244.82747,824.78858,1237.37475,830.112Z"/><g id="wrapper-1"><path class="cls-1" d="M1948.57717,598.013l10.64674-21.29348-23.42284,7.45272,8.5174-22.35816-21.29349,8.51739,7.45272-22.35816-21.29348,8.51739,8.51739-21.29348-21.29348,7.45272,7.45272-20.22881-21.29349,8.51739,8.51739-19.16413-21.29348,4.25869,7.45272-22.35816-23.42283,8.5174,8.51739-20.22881-21.29349,7.45272,9.58207-22.35816-22.35816,8.51739,8.5174-20.22881-20.22881,9.58207,5.32337-22.35816-19.16414,4.25869,8.51739-20.22881-22.35816,8.5174,6.38805-20.22881-22.35816,8.51739,8.51739-21.29349-21.29348,6.38805,8.51739-21.29349-21.82582,7.98506L1531.22485,610.78905l-8.5174,20.22881,22.35816-5.32337-7.45272,19.16414,20.22882-7.45272-7.45272,20.22881,23.42283-6.388-9.58207,19.16413,21.29349-8.51739-8.5174,22.35816,22.35816-7.45272-7.45272,22.35816,22.35816-8.5174-9.58207,22.35816,21.29349-7.45272-7.45272,20.22882,21.29349-6.388-8.5174,20.22881,22.35816-6.388-7.45272,19.16413,22.35816-10.64674-8.51739,24.48751,21.29348-7.45272-8.51739,22.35816,20.22881-8.5174-8.5174,21.29349,22.35816-6.38805-8.51739,20.22881,21.29349-7.45272-6.38805,20.22882,22.35816-8.5174L1724.99557,836.5l23.95517-10.11441,215.59654-215.59654L1972,589.49557ZM1909.214,623.14627,1758.6464,773.714a12.81389,12.81389,0,0,1-18.06827,0L1585.49348,618.62926a12.81374,12.81374,0,0,1,0-18.06814l150.56758-150.56764a12.81376,12.81376,0,0,1,18.06827,0L1909.214,605.07819A12.81366,12.81366,0,0,1,1909.214,623.14627Z"/><path class="cls-1" d="M1753.76387,461.85637a12.81361,12.81361,0,0,0-18.06814,0L1597.59245,599.95964a12.81375,12.81375,0,0,0,0,18.06815l142.28646,142.28646a12.81374,12.81374,0,0,0,18.06814,0l138.10328-138.10334a12.81366,12.81366,0,0,0,0-18.06808Zm51.08227,170.22617a29.81088,29.81088,0,1,1,29.81088-29.81088A29.8109,29.8109,0,0,1,1804.84614,632.08254Z"/></g></g><g id="drugs"><path id="pill-pack" class="cls-2" d="M800.63811,481.09013l-260.0122.20436V748.46117H792.0528c30.66182-1.22647,33.11477-23.303,33.11477-23.303v-225.671C825.16757,483.54307,800.63811,481.09013,800.63811,481.09013ZM611.76132,506.84606a38.02164,38.02164,0,0,1,16.12381,72.45471,29.43535,29.43535,0,1,0-32.24761,0,38.02164,38.02164,0,0,1,16.1238-72.45471Zm18.57675,196.32845a29.43535,29.43535,0,1,0-32.24761,0,38.02066,38.02066,0,1,1,32.24761,0ZM740.54095,506.84606a38.02164,38.02164,0,0,1,16.12381,72.45471,29.43535,29.43535,0,1,0-32.24761,0,38.02164,38.02164,0,0,1,16.1238-72.45471ZM759.1177,703.17451a29.43535,29.43535,0,1,0-32.24761,0,38.02066,38.02066,0,1,1,32.24761,0Z"/><path id="pill-bottle" class="cls-2" d="M519.77587,338.8193l-53.9648-34.34124v-22.0765c23.303-2.453,35.56771-14.71768,35.56771-14.71768q-3.67941-43.53981-7.35883-87.07956a720.09021,720.09021,0,0,0-313.977,0q-3.67941,43.53971-7.35883,87.07956c12.26472,15.94415,36.79418,11.03826,36.79418,11.03826v26.9824l-36.79418,22.07651c-36.79418,17.17061-39.24713,56.41774-39.24713,56.41774V717.79935c-4.90589,63.77658,33.11476,73.58836,33.11476,73.58836,150.85614,44.153,326.24173,4.9059,326.24173,4.9059,45.37949-8.58531,47.83244-49.05891,47.83244-49.05891V381.74584C540.62591,344.95166,519.77587,338.8193,519.77587,338.8193Zm7.97207,269.96435s-234.3503,93.50933-383.27271,0V422.91944s165.08424,73.8839,383.27271,0Z"/><path id="pill-3" class="cls-2" d="M666.95259,780.34946c-28.20887-12.26473-69.90894-6.13236-69.90894-6.13236v.66039l44.153,22.64259-3.67942,1.22647L594.41554,776.67h-1.05131l-3.48568-2.32381-.24524-.12569c-24.48184,1.24324-28.15737,14.71423-28.15737,14.71423v30.66182c49.05891,34.34123,111.609,2.45294,111.609,2.45294V784.02888Z"/><path id="pill-2" class="cls-2" d="M853.37644,784.02888H796.95869l-3.67941,3.67942L778.5616,807.33186h-2.45294L791.3713,787.7083H729.5027c-35.56771,25.75592,0,49.0589,0,49.0589l123.87374,2.45295C897.52945,811.01128,853.37644,784.02888,853.37644,784.02888Z"/><path id="pill-1" class="cls-2" d="M682.89674,855.16429h-9.97887l-1.05939,23.303H670.632l1.05939-23.303H657.14081c-28.20887-1.22647-40.4736,14.71768-40.4736,14.71768v23.303c65.00305,28.20887,112.83549,0,112.83549,0V868.65549C718.46444,853.93782,682.89674,855.16429,682.89674,855.16429Z"/></g><g id="doc"><g id="clipboard"><path id="clip-backing" class="cls-2" d="M2478.5,222.5l343,69s63,6,45,90l-87,444s-18,56-105,40l-309-61s-67.74239-12.22181-49.3712-88.11091L2407.5,270.5S2427.5,212.5,2478.5,222.5Z"/><path id="clip-paper" class="cls-3" d="M2425.5,282.5s4.28769-34.78986,58.64384-34.89493l328.48358,64.49677S2852.5,326.5,2844.5,376.5l-78,429s-25,52-62,44l-336-66s-39-23-24-86Z"/><path id="clip-top" class="cls-2" d="M2478.5,257.5l16-72,107,22s4-53,59-52l12,2s50,15,39,71l110,20-14,71Z"/></g><path id="pen" class="cls-2" d="M2917.5,464.5l-8,8-64,88-106,159-16,26s-3,7,0,8,3,0,3,0-14,9-23,7c0,0-5,45-11,52,0,0-7,7-3,9l5,3s4,1,7-5l1-3s40-32,46-33c0,0-7-17-4-20,0,0,6,4,10,0s19-32,19-32l81-147,32-57,31-57Z"/><path id="writting-path" class="cls-2" d="M2670.5,756.5s0-10.34411,11.85479-5.49893q.55509.22688,1.14521.49893l-1,5,13,9s13,15-15,17l-25,1s-43,7-14,23l44,15-42-9s-30-10-13-26c0,0,6-7,25-11,0,0,13-2,22-1,0,0,16,1,7-8l-13-7Z"/><path id="steth" class="cls-2" d="M2309.5,213.5s-5-6,0-11l23-9s11-2,13,5c0,0,44-10,71-2,0,0,7-3,8,11l6,84h4l5,111s-5,78-61,97c0,0-35,15-42,13l12,51s6,42,3,64l-10,51-14,52-8,36s-10,58,29,73c0,0,48,6,67-31,0,0,18-36-2-77,0,0-19-69-17-75,0,0-5-62,8-85,0,0,8-22,39-20l18-16s35-29,46,12c0,0,4,48-32,61,0,0-42,7-38-28l1-17-11-1s-15,15-16,30c0,0-2,72,12,113,0,0,31,84,1,114,0,0-26,38-89,28,0,0-55-21-26-107,0,0,21-75,22-87,0,0,16-64-4-114l-9-23s-61,24-107-36c0,0-20-38-23-46l-31-76v-4l-29-76s-3-14,8-19l60-24,2-7s21-9,34-8a9.38957,9.38957,0,0,1,3,9c-1,6-28,13-28,13l-7-2-58,23s-8,7-4,15l29,75h7l42,101s5,20,26,37c0,0,20,15,42,16,0,0,21,1,40-5a350.01171,350.01171,0,0,0,55-17s32-20,39-51-1-100-1-100l-3-42,4-2-5-82s0-7-8-6c0,0-49,0-60,4a40.94,40.94,0,0,1-13,7Z"/></g></svg>