<svg xmlns="http://www.w3.org/2000/svg" viewBox="0 0 1000 1000"><defs><style>.cls-1{fill:#f5855b;}</style></defs><title>FIP-icons</title><g id="doc_2"><path id="medbag" class="cls-1" d="M838.09831,273.71732H674.45884V222.69c0-61.58475-54.54649-54.54649-54.54649-54.54649h-246.339c-45.74867,0-45.74867,45.74867-45.74867,45.74867v58.06562h-177.716c-65.10387,0-61.58474,61.58474-61.58474,61.58474V687.1728c0,45.58113,36.1312,83.24422,81.696,84.48055,1.77331.04812,2.76307.02062,2.76307.02062H829.30048C901.44262,771.674,912,688.97446,912,688.97446V347.619C912,270.19819,838.09831,273.71732,838.09831,273.71732ZM602.31671,565.805H531.93414v70.38257H461.55158V565.805H391.169V495.4224h70.38257V418.00158H538.9724v70.38257h63.34431ZM623.43148,284.2747H377.0925V217.41127h246.339Z"/></g></svg>