<svg xmlns="http://www.w3.org/2000/svg" viewBox="0 0 1000 1000"><defs><style>.cls-1{fill:#f5855b;}.cls-2{fill:#fff;}</style></defs><title>FIP-icons</title><g id="doc"><g id="clipboard"><path id="clip-backing" class="cls-1" d="M446.5,182.5l343,69s63,6,45,90l-87,444s-18,56-105,40l-309-61s-67.74239-12.22181-49.3712-88.11091L375.5,230.5S395.5,172.5,446.5,182.5Z"/><path id="clip-paper" class="cls-2" d="M393.5,242.5s4.28769-34.78986,58.64384-34.89493l328.48358,64.49677S820.5,286.5,812.5,336.5l-78,429s-25,52-62,44l-336-66s-39-23-24-86Z"/><path id="clip-top" class="cls-1" d="M446.5,217.5l16-72,107,22s4-53,59-52l12,2s50,15,39,71l110,20-14,71Z"/></g><path id="pen" class="cls-1" d="M885.5,424.5l-8,8-64,88-106,159-16,26s-3,7,0,8,3,0,3,0-14,9-23,7c0,0-5,45-11,52,0,0-7,7-3,9l5,3s4,1,7-5l1-3s40-32,46-33c0,0-7-17-4-20,0,0,6,4,10,0s19-32,19-32l81-147,32-57,31-57Z"/><path id="writting-path" class="cls-1" d="M638.5,716.5s0-10.34411,11.85479-5.49893q.55509.22688,1.14521.49893l-1,5,13,9s13,15-15,17l-25,1s-43,7-14,23l44,15-42-9s-30-10-13-26c0,0,6-7,25-11,0,0,13-2,22-1,0,0,16,1,7-8l-13-7Z"/><path id="steth" class="cls-1" d="M277.5,173.5s-5-6,0-11l23-9s11-2,13,5c0,0,44-10,71-2,0,0,7-3,8,11l6,84h4l5,111s-5,78-61,97c0,0-35,15-42,13l12,51s6,42,3,64l-10,51-14,52-8,36s-10,58,29,73c0,0,48,6,67-31,0,0,18-36-2-77,0,0-19-69-17-75,0,0-5-62,8-85,0,0,8-22,39-20l18-16s35-29,46,12c0,0,4,48-32,61,0,0-42,7-38-28l1-17-11-1s-15,15-16,30c0,0-2,72,12,113,0,0,31,84,1,114,0,0-26,38-89,28,0,0-55-21-26-107,0,0,21-75,22-87,0,0,16-64-4-114l-9-23s-61,24-107-36c0,0-20-38-23-46l-31-76v-4l-29-76s-3-14,8-19l60-24,2-7s21-9,34-8a9.38957,9.38957,0,0,1,3,9c-1,6-28,13-28,13l-7-2-58,23s-8,7-4,15l29,75h7l42,101s5,20,26,37c0,0,20,15,42,16,0,0,21,1,40-5a350.01171,350.01171,0,0,0,55-17s32-20,39-51-1-100-1-100l-3-42,4-2-5-82s0-7-8-6c0,0-49,0-60,4a40.94,40.94,0,0,1-13,7Z"/></g></svg>