<svg xmlns="http://www.w3.org/2000/svg" viewBox="0 0 1000 1000"><defs><style>.cls-1{fill:#68bbb8;}</style></defs><title>FIP-icons</title><g id="condom_2"><path id="tall-condom" class="cls-1" d="M292.41934,842.94782H283.902V313.8047c-1.06468-50.03969-73.46253-79.85057-73.46253-79.85057l-9.58207-24.48751V194.56118c-17.03478-24.48751-34.06957,0-34.06957,0v19.16414L156.141,235.0188c-63.88045,13.84077-72.39785,85.17395-72.39785,85.17395V844.01249H74.16111c-24.4875,13.84077,0,24.48751,0,24.48751H292.41934C317.97152,855.72391,292.41934,842.94782,292.41934,842.94782ZM100.778,305.28731s9.58207-8.5174,18.09946,0v22.35816s-8.51739,9.58207-18.09946,0Zm0,45.781s10.64674-18.09946,18.09946,0v183.124s-10.64674,15.97011-18.09946,0ZM184.88724,862.112s-107.5321-2.66168-107.5321-1.06467c0,0-8.5174-5.32337,0-9.58207h107.5321S194.46931,855.72391,184.88724,862.112Zm24.48751,0h-9.58207s-7.45272-6.388,0-10.64674h9.58207S216.82747,856.78858,209.37475,862.112Z"/><g id="wrapper-2"><path class="cls-1" d="M709.08,255.19569,698.5402,277.78084l-7.52849-22.58515L679.7193,277.028l-9.78689-21.83233-9.03414,21.07944-10.53965-21.07944-9.03413,21.07944-9.03414-21.07944-9.78689,20.32661-9.034-19.57378-9.034,21.0795-7.52836-19.57386L584.86166,275.5223l-10.53978-21.07949L563.7821,277.028,555.501,256.70134,545.71409,277.028,536.68,254.44281l-9.78689,21.83232-8.28125-20.32661-7.52836,21.0795L499.038,257.45416l-10.53978,16.5625L480.21712,253.69l-9.78689,21.83232-9.78689-18.821-9.7869,21.83232-9.03413-21.0795L431.28253,277.028l-9.034-21.0795-9.78689,21.0795V581.92756l8.28111,20.32661,12.04543-19.57379,8.28138,18.821,9.03387-19.57378,9.03414,19.57378L471.183,580.42185l6.7756,20.32667,9.034-21.0795,9.78689,21.83232,10.53978-21.07949,10.53965,21.07949,9.7869-21.83232L536.68,602.25417l9.78689-20.32661,9.03414,19.57378,10.53965-19.57378,8.28125,20.32661,11.29254-20.32661,8.28125,18.821,8.28124-23.338,11.29254,23.338,9.7869-20.32667,9.78689,21.83232,8.28125-20.32661,9.03413,21.07943L661.651,582.68038l8.28138,20.32661,9.78689-20.32661,9.7869,18.821,9.78689-21.83232L709.08,604.5127l9.7869-24.09085V275.5223ZM685.28415,530.99825a12.81369,12.81369,0,0,1-12.77609,12.7761H453.18516a12.81368,12.81368,0,0,1-12.77609-12.7761V318.0634a12.81364,12.81364,0,0,1,12.77609-12.77609h219.3229a12.81364,12.81364,0,0,1,12.77609,12.77609Z"/><path class="cls-1" d="M662.926,314.39721H461.70255a12.81364,12.81364,0,0,0-12.77609,12.77609V522.48086A12.81369,12.81369,0,0,0,461.70255,535.257H662.926a12.81369,12.81369,0,0,0,12.77609-12.77609V327.1733A12.81364,12.81364,0,0,0,662.926,314.39721Zm-60.1541,104.81024a29.27854,29.27854,0,1,1,29.27855-29.27854A29.27861,29.27861,0,0,1,602.77189,419.20745Z"/></g><g id="wrapper-1"><path class="cls-1" d="M920.57717,630.013l10.64674-21.29348-23.42284,7.45272,8.5174-22.35816L895.025,602.33143l7.45272-22.35816-21.29348,8.51739,8.51739-21.29348-21.29348,7.45272,7.45272-20.22881-21.29349,8.51739,8.51739-19.16413L841.79127,548.033l7.45272-22.35816-23.42283,8.5174,8.51739-20.22881-21.29349,7.45272,9.58207-22.35816L800.269,507.57542l8.5174-20.22881-20.22881,9.58207,5.32337-22.35816-19.16414,4.25869,8.51739-20.22881L760.876,467.1178l6.388-20.22881-22.35816,8.51739,8.51739-21.29349-21.29348,6.38805,8.51739-21.29349-21.82582,7.98506L503.22485,642.78905l-8.5174,20.22881,22.35816-5.32337-7.45272,19.16414,20.22882-7.45272L522.389,689.63472l23.42283-6.388-9.58207,19.16413,21.29349-8.51739-8.5174,22.35816,22.35816-7.45272L563.91128,731.157l22.35816-8.5174-9.58207,22.35816,21.29349-7.45272-7.45272,20.22882,21.29349-6.388-8.5174,20.22881,22.35816-6.388-7.45272,19.16413L640.56783,773.744l-8.51739,24.48751,21.29348-7.45272-8.51739,22.35816,20.22881-8.5174-8.5174,21.29349L678.8961,819.525l-8.51739,20.22881,21.29349-7.45272-6.38805,20.22882,22.35816-8.5174L696.99557,868.5l23.95517-10.11441L936.54728,642.78905,944,621.49557ZM881.214,655.14627,730.6464,805.714a12.81389,12.81389,0,0,1-18.06827,0L557.49348,650.62926a12.81374,12.81374,0,0,1,0-18.06814L708.06106,481.99348a12.81376,12.81376,0,0,1,18.06827,0L881.214,637.07819A12.81366,12.81366,0,0,1,881.214,655.14627Z"/><path class="cls-1" d="M725.76387,493.85637a12.81361,12.81361,0,0,0-18.06814,0L569.59245,631.95964a12.81375,12.81375,0,0,0,0,18.06815L711.87891,792.31425a12.81374,12.81374,0,0,0,18.06814,0L868.05033,654.21091a12.81366,12.81366,0,0,0,0-18.06808Zm51.08227,170.22617A29.81088,29.81088,0,1,1,806.657,634.27166,29.8109,29.8109,0,0,1,776.84614,664.08254Z"/></g></g></svg>