<svg xmlns="http://www.w3.org/2000/svg" viewBox="0 0 1000 1000"><defs><style>.cls-1{fill:#e81b23;}</style></defs><title>FIP-icons</title><g id="doc_3"><path id="vile" class="cls-1" d="M607.08386,99H394.06952A8.56937,8.56937,0,0,0,385.5,107.56958V210.40405a8.56937,8.56937,0,0,0,8.56952,8.56958H396.518a8.56932,8.56932,0,0,1,8.56951,8.56934V830.7644a8.61312,8.61312,0,0,0,1.62024,5.03028c92.05683,127.38525,167.72248,33.84106,187.03009,5.28418a28.03509,28.03509,0,0,0,4.77649-15.717V227.543a8.56932,8.56932,0,0,1,8.56952-8.56934,8.56937,8.56937,0,0,0,8.56952-8.56958V107.56958A8.56937,8.56937,0,0,0,607.08386,99ZM588.72058,814.09351a46.58019,46.58019,0,0,1-9.51538,28.32324c-23.25256,30.39038-86.21783,93.42261-156.447.89184A50.60407,50.60407,0,0,1,412.498,812.52368l2.3833-588.65332H588.72058Z"/><path id="vile-fill" class="cls-1" d="M571.58147,823.73836v-350.127H429.57193v350.127C495.67982,931.46974,571.58147,823.73836,571.58147,823.73836Z"/></g></svg>