<svg xmlns="http://www.w3.org/2000/svg" viewBox="0 0 1000 1000"><defs><style>.cls-1{fill:#68bbb8;}</style></defs><title>FIP-icons</title><g id="drugs"><path id="pill-pack" class="cls-1" d="M841.99345,462.62543l-298.2608.23443V769.32758H832.14522c35.17227-1.40689,37.986-26.73092,37.986-26.73092V483.72879C870.13127,465.43922,841.99345,462.62543,841.99345,462.62543ZM625.3323,492.17014a43.61474,43.61474,0,0,1,18.49567,83.113,33.76538,33.76538,0,1,0-36.99133,0,43.61474,43.61474,0,0,1,18.49566-83.113Zm21.30945,225.209a33.76538,33.76538,0,1,0-36.99133,0,43.61361,43.61361,0,1,1,36.99133,0Zm126.41407-225.209a43.61474,43.61474,0,0,1,18.49566,83.113,33.76538,33.76538,0,1,0-36.99133,0,43.61474,43.61474,0,0,1,18.49567-83.113Zm21.30944,225.209a33.76538,33.76538,0,1,0-36.99133,0,43.61362,43.61362,0,1,1,36.99133,0Z"/><path id="pill-bottle" class="cls-1" d="M519.81551,299.42612l-61.90319-39.39293v-25.324c26.73092-2.81378,40.79983-16.88269,40.79983-16.88269q-4.22067-49.94466-8.44134-99.88923a826.01729,826.01729,0,0,0-360.164,0q-4.22067,49.94452-8.44134,99.88923c14.06891,18.28958,42.20672,12.662,42.20672,12.662v30.95159l-42.20672,25.324c-42.20672,19.69647-45.0205,64.717-45.0205,64.717V734.15532c-5.62756,73.15831,37.98605,84.41343,37.98605,84.41343,173.04754,50.64807,374.2329,5.62757,374.2329,5.62757,52.05495-9.84824,54.86873-56.27563,54.86873-56.27563V348.6673C543.73265,306.46058,519.81551,299.42612,519.81551,299.42612Zm9.14479,309.67694s-268.824,107.26485-439.65331,0V395.89765s189.36864,84.75245,439.65331,0Z"/><path id="pill-3" class="cls-1" d="M688.64238,805.90674c-32.35848-14.06891-80.19276-7.03445-80.19276-7.03445v.75754l50.64806,25.97338L654.877,827.0101l-49.44211-25.324h-1.206l-3.99844-2.66566-.28131-.14417c-28.08319,1.42612-32.2994,16.87873-32.2994,16.87873v35.17227c56.27562,39.39293,128.027,2.81378,128.027,2.81378V810.12741Z"/><path id="pill-2" class="cls-1" d="M902.48975,810.12741h-64.717l-4.22067,4.22067-16.88269,22.51025h-2.81378l17.50782-22.51025H760.3938c-40.79983,29.54471,0,56.27563,0,56.27563l142.09595,2.81378C953.13781,841.079,902.48975,810.12741,902.48975,810.12741Z"/><path id="pill-1" class="cls-1" d="M706.932,891.72707H695.48517L694.26994,918.458h-1.40689l1.21523-26.73092h-16.691c-32.35849-1.4069-46.42739,16.88268-46.42739,16.88268v26.73092c74.5652,32.35849,129.43393,0,129.43393,0V907.20286C747.73179,890.32017,706.932,891.72707,706.932,891.72707Z"/></g></svg>