<svg id="condom_1" xmlns="http://www.w3.org/2000/svg" viewBox="0 0 1000 1000"><defs><style>.cls-1{fill:#68bbb8;}</style></defs><title>FIP-icons</title><g id="tall-condom"><path class="cls-1" d="M826.89007,848.98666c7.02835-2.55819,10.84642-4.3283,10.84642-4.3283,18.60852-7.92589,27.60471-16.73994,30.73236-25.45773C859.2945,831.86994,843.444,841.65144,826.89007,848.98666Z"/><path class="cls-1" d="M590.756,772.01522c-21.29338,12.92611-28.12947,25.234-27.71908,35.92354C563.82566,790.708,582.58949,777.12858,590.756,772.01522Z"/><path class="cls-1" d="M837.73649,769.81546v18.71072s1.33648,29.40257-97.56306,38.75793c0,0-72.16993,5.34592-124.29266-21.38368l-17.37424-13.3648-2.673-4.00945V769.81546h-1.33648s-1.457.76955-3.74107,2.19976c-8.16653,5.11336-26.93036,18.69278-27.71908,35.92354-.2594,5.6656,1.42262,11.72528,6.067,18.00887,0,0,49.44977,61.47809,196.4626,41.43089,0,0,31.77607-5.2991,61.32351-18.39186,16.55395-7.33522,32.40443-17.11672,41.57878-29.786.46349-.64.91459-1.28534,1.34317-1.94012C869.812,817.26051,880.50386,783.18026,837.73649,769.81546Z"/><path class="cls-1" d="M837.73649,788.52618V259.28C836.4,160.38047,753.53824,140.33327,753.53824,140.33327v-30.739c-38.75793-64.151-72.16994,0-72.16994,0v33.412c-74.84289,16.03776-86.87121,100.236-86.87121,100.236V769.81546h1.33648v18.71072l2.673,4.00945,17.37424,13.3648c52.12273,26.7296,124.29266,21.38368,124.29266,21.38368C839.073,817.92875,837.73649,788.52618,837.73649,788.52618ZM633.255,773.8249s-9.35536,10.69184-12.02832,0V252.59761s5.34592-6.6824,12.02832,0Z"/></g><path id="small-condom" class="cls-1" d="M476.88683,784.51674c-20.04721-60.14161-117.61027-72.16993-117.61027-72.16993,0-70.83345-22.72016-90.88066-22.72016-90.88066-36.085-25.39312-66.824,0-66.824,0C243.00278,640.17688,248.3487,701.655,248.3487,701.655l-5.34592,10.69184c-60.14161,8.01888-98.89954,41.43089-98.89954,41.43089-46.7768,57.46865,36.085,98.89954,36.085,98.89954s84.19826,40.0944,197.79908,14.70128S476.88683,784.51674,476.88683,784.51674ZM253.69462,763.13306s14.70129-38.75793,16.03777-66.824c0,0-2.673-53.45921,21.38368-58.80513h12.02832s5.34592,5.34592,0,8.01888H291.11607s-10.69184,4.00944-12.02832,41.43089c0,0-2.673,56.13217-14.70128,76.17937l-2.673,6.6824S249.68518,781.84378,253.69462,763.13306Zm197.122,58.75717c-68.12566,46.25189-157.45139,37.10233-157.45139,37.10233-140.12959-9.2144-146.56042-66.88233-146.56042-66.88233,6.63411-46.61163,91.31633-62.99289,91.31633-62.99289l2.672.07374-15.396,24.97792s-48.72166,21.3845-34.61577,43.16552,56.6358,30.97651,56.6358,30.97651c87.87928,13.12065,160.759-11.60831,160.759-11.60831,45.90227-16.11428,7.78575-39.8948,7.78575-39.8948l-36.89115-19.73576L366.37449,732.656S518.94223,775.63834,450.81665,821.89023Z"/></svg>