<svg xmlns="http://www.w3.org/2000/svg" viewBox="0 0 1000 1000"><defs><style>.cls-1{fill:#f5855b;}</style></defs><title>FIP-icons</title><g id="needle"><path id="needle-2" data-name="needle" class="cls-1" d="M888.18247,187.99381,713.06907,35l53.45567,86.63505L655.9268,248.82268,596.94124,195.367l-11.0598,12.90309,14.392,12.99918L254.08763,608.266V720.70722L80.81753,929,263.30412,735.45361l116.12784-18.433,341.326-387.546-44.59627-40.05125.0414-.04815,55.299,49.76907,11.0598-9.21649-57.14227-49.76908L801.54742,151.12784Zm-175.1134,141.934L379.432,709.64742,261.46082,608.266l339.167-377.87629,38.41743,34.00878L438.41753,492.13814,410.768,470.01856l-14.74639,16.58969L484.5,560.34021l14.74639-16.58969-23.96288-22.11959L672.32433,293.85885Z"/></g></svg>