<?xml version="1.0" encoding="utf-8"?>
<!-- Generator: Adobe Illustrator 22.0.0, SVG Export Plug-In . SVG Version: 6.00 Build 0)  -->
<svg version="1.1" id="tiktok" xmlns="http://www.w3.org/2000/svg" xmlns:xlink="http://www.w3.org/1999/xlink" x="0px" y="0px"
	 viewBox="0 0 500 500" style="enable-background:new 0 0 500 500;" xml:space="preserve">
<style type="text/css">
	.st0{fill:#FFFFFF;}
</style>
<path class="st0" d="M349.6982727,16H270.377594v313.832489c0,1.1155701-0.0389709,2.2275085-0.0849915,3.3384705
	c0.0540466,1.1143799,0.0849915,2.2348022,0.0849915,3.3626099c0,38.5860901-32.0126953,69.6952515-70.9277954,68.2171936
	c-35.3828125-1.3438721-64.2136536-30.1749878-65.5572357-65.5578003
	c-1.4777069-38.914917,29.6313477-70.9272156,68.2172394-70.9272156c4.8630981,0,9.0782471-0.9666748,13.6535645,0
	l0.0457916-0.0022888c2.8883514-0.1455383,5.1555634-2.5298157,5.1555634-5.4218445v-67.9944611
	c0-2.6418762-2.0755768-4.8087006-4.7145996-4.9316864c-20.8926697-0.9736176-105.7826157,0.3102264-144.1006165,81.250061
	c-20.9323616,44.2158508-20.9068108,95.8228455,1.093605,139.5170593
	c21.9167938,43.5281372,69.4408951,87.5481567,172.4280396,68.2380981c0,0,101.4264374-23.4060974,104.0271149-141.736969
	V172.0406799c0,0,41.9596252,32.0867615,106.6426086,36.1469879c2.8066406,0.176178,5.186554-2.0563354,5.186554-4.8684845
	v-70.7980194c0-2.6121063-1.9194641-4.8343811-4.5075989-5.1874084C437.1062012,124.6175003,357.65271,108.0443497,349.6982727,16z"
	/>
</svg>
